<?xml version="1.0" standalone="no"?><!DOCTYPE svg PUBLIC "-//W3C//DTD SVG 1.1//EN" "http://www.w3.org/Graphics/SVG/1.1/DTD/svg11.dtd"><svg t="1737099373138" class="icon" viewBox="0 0 1024 1024" version="1.1" xmlns="http://www.w3.org/2000/svg" p-id="1281" xmlns:xlink="http://www.w3.org/1999/xlink" width="200" height="200"><path d="M836.266667 349.866667l-277.333334-170.666667c-25.6-17.066667-64-17.066667-89.6 0l-277.333333 170.666667c-25.6 17.066667-38.4 42.666667-38.4 72.533333V725.333333c0 81.066667 68.266667 149.333333 149.333333 149.333334h426.666667c81.066667 0 149.333333-68.266667 149.333333-149.333334V422.4c0-29.866667-17.066667-55.466667-38.4-72.533333zM512 682.666667c-59.733333 0-106.666667-46.933333-106.666667-106.666667S452.266667 469.333333 512 469.333333s106.666667 46.933333 106.666667 106.666667S571.733333 682.666667 512 682.666667z" p-id="1282" fill="#efb336"></path></svg>