<?xml version="1.0" standalone="no"?><!DOCTYPE svg PUBLIC "-//W3C//DTD SVG 1.1//EN" "http://www.w3.org/Graphics/SVG/1.1/DTD/svg11.dtd"><svg t="1737099956502" class="icon" viewBox="0 0 1024 1024" version="1.1" xmlns="http://www.w3.org/2000/svg" p-id="3500" xmlns:xlink="http://www.w3.org/1999/xlink" width="200" height="200"><path d="M849.066667 145.066667c-29.866667-29.866667-93.866667-21.333333-174.933334 17.066666-51.2-21.333333-106.666667-34.133333-162.133333-34.133333-213.333333 0-384 170.666667-384 384s12.8 115.2 34.133333 162.133333c-38.4 81.066667-46.933333 145.066667-17.066666 174.933334 64 64 273.066667-42.666667 465.066666-238.933334 196.266667-196.266667 302.933333-405.333333 238.933334-465.066666z m-332.8 221.866666c-21.333333 34.133333-29.866667 72.533333-34.133334 110.933334 0 17.066667-21.333333 29.866667-38.4 21.333333-34.133333-21.333333-72.533333-29.866667-110.933333-34.133333-17.066667 0-29.866667-21.333333-21.333333-38.4 21.333333-34.133333 29.866667-72.533333 34.133333-110.933334 0-17.066667 21.333333-29.866667 38.4-21.333333 34.133333 21.333333 72.533333 29.866667 110.933333 34.133333 17.066667 0 29.866667 21.333333 21.333334 38.4zM878.933333 396.8c-42.666667 85.333333-115.2 183.466667-204.8 273.066667-89.6 89.6-187.733333 162.133333-273.066666 204.8 34.133333 12.8 72.533333 17.066667 115.2 17.066666 213.333333 0 384-170.666667 384-384s-4.266667-76.8-17.066667-115.2z" p-id="3501" fill="#ffffff"></path></svg>